<svg xmlns="http://www.w3.org/2000/svg" xmlns:xlink="http://www.w3.org/1999/xlink" width="500" zoomAndPan="magnify" viewBox="0 0 375 374.999991" height="500" preserveAspectRatio="xMidYMid meet" version="1.0"><defs><clipPath id="8ccdd50beb"><path d="M 37.5 37.5 L 337.5 37.5 L 337.5 337.5 L 37.5 337.5 Z M 37.5 37.5 " clip-rule="nonzero"/></clipPath></defs><g clip-path="url(#8ccdd50beb)"><path fill="#000000" d="M 187.5 37.5 C 104.65625 37.5 37.5 104.65625 37.5 187.5 C 37.5 270.34375 104.65625 337.5 187.5 337.5 C 270.34375 337.5 337.5 270.34375 337.5 187.5 C 337.5 104.65625 270.34375 37.5 187.5 37.5 Z M 187.5 326.136719 C 110.933594 326.136719 48.863281 264.066406 48.863281 187.5 C 48.863281 110.933594 110.933594 48.863281 187.5 48.863281 C 264.066406 48.863281 326.136719 110.933594 326.136719 187.5 C 326.136719 264.066406 264.066406 326.136719 187.5 326.136719 Z M 187.5 326.136719 " fill-opacity="1" fill-rule="nonzero"/></g><path fill="#000000" d="M 169.894531 261.027344 C 166.132812 261.386719 163.128906 261.800781 160.109375 261.941406 C 142.996094 262.753906 130.324219 256.003906 122.640625 240.269531 C 120.191406 235.261719 117.058594 230.53125 113.796875 225.992188 C 111.835938 223.265625 109.09375 221.074219 106.554688 218.804688 L 106.527344 218.777344 C 104.957031 217.398438 105.648438 214.816406 107.710938 214.46875 C 110.128906 214.0625 112.382812 214.5 114.578125 215.058594 C 121.460938 216.8125 125.878906 221.691406 129.398438 227.523438 C 137.355469 240.722656 151.0625 246.226562 165.882812 242.292969 C 168.402344 241.625 169.511719 240.542969 170.058594 237.796875 C 170.695312 234.597656 171.566406 231.441406 172.5 228.226562 C 172.636719 227.753906 172.722656 227.269531 172.761719 226.777344 C 172.804688 226.285156 172.792969 225.796875 172.730469 225.308594 C 172.671875 224.816406 172.5625 224.339844 172.402344 223.871094 C 172.246094 223.40625 172.042969 222.957031 171.792969 222.53125 C 171.546875 222.105469 171.257812 221.710938 170.925781 221.34375 C 170.597656 220.976562 170.234375 220.644531 169.839844 220.351562 C 169.441406 220.058594 169.019531 219.808594 168.574219 219.601562 C 168.125 219.390625 167.660156 219.230469 167.179688 219.117188 L 167.097656 219.097656 C 151.71875 215.417969 138.433594 208.566406 129.875 194.515625 C 125.296875 187 123.03125 178.722656 123.148438 170.097656 C 123.28125 160.3125 124.144531 150.503906 125.269531 140.777344 C 126.0625 133.925781 129.234375 127.859375 134.160156 122.929688 C 135.878906 121.214844 136.023438 119.773438 135.195312 117.550781 C 131.804688 108.449219 132.390625 99.324219 135.402344 90.203125 C 136.253906 87.628906 137.457031 87.261719 139.921875 88.035156 C 147.542969 90.433594 153.226562 95.390625 158.222656 101.332031 L 158.273438 101.390625 C 158.902344 102.144531 159.625 102.789062 160.445312 103.328125 C 161.269531 103.863281 162.148438 104.269531 163.09375 104.542969 C 164.035156 104.8125 164.996094 104.941406 165.976562 104.925781 C 166.960938 104.910156 167.917969 104.75 168.851562 104.449219 C 184.664062 99.261719 208.652344 99.191406 223.566406 104.324219 C 224.503906 104.644531 225.46875 104.816406 226.457031 104.84375 C 227.445312 104.867188 228.417969 104.746094 229.371094 104.480469 C 230.324219 104.210938 231.214844 103.808594 232.046875 103.269531 C 232.875 102.734375 233.609375 102.085938 234.242188 101.324219 L 234.289062 101.265625 C 239.296875 95.328125 245.003906 90.410156 252.621094 88.003906 C 255.175781 87.199219 256.261719 87.8125 257.070312 90.296875 C 260.042969 99.421875 260.550781 108.492188 257.335938 117.691406 C 256.882812 118.984375 256.902344 121.238281 257.707031 122.054688 C 264.535156 128.980469 267.523438 137.578125 268.28125 146.894531 C 269.015625 155.894531 269.808594 165.046875 268.972656 173.984375 C 266.800781 197.226562 252.667969 210.761719 231.179688 217.492188 C 229.339844 218.066406 227.472656 218.550781 225.5625 219 C 225.070312 219.117188 224.589844 219.285156 224.128906 219.503906 C 223.667969 219.71875 223.234375 219.984375 222.828125 220.292969 C 222.425781 220.601562 222.054688 220.949219 221.722656 221.332031 C 221.390625 221.71875 221.101562 222.136719 220.855469 222.582031 C 220.609375 223.03125 220.414062 223.496094 220.265625 223.984375 C 220.121094 224.472656 220.023438 224.96875 219.980469 225.476562 C 219.9375 225.984375 219.949219 226.492188 220.011719 226.996094 C 220.078125 227.503906 220.191406 227.996094 220.359375 228.476562 C 223.285156 236.960938 222.839844 246.023438 222.792969 255.027344 C 222.785156 257.097656 222.777344 259.167969 222.773438 261.242188 C 222.769531 262.09375 222.726562 262.949219 222.640625 263.800781 C 222.554688 264.648438 222.429688 265.496094 222.261719 266.332031 C 222.09375 267.171875 221.882812 268 221.632812 268.816406 C 221.382812 269.636719 221.09375 270.4375 220.765625 271.226562 C 220.4375 272.019531 220.070312 272.789062 219.667969 273.542969 C 219.261719 274.296875 218.824219 275.027344 218.347656 275.738281 C 217.871094 276.449219 217.363281 277.132812 216.816406 277.792969 C 216.273438 278.453125 215.699219 279.085938 215.09375 279.691406 C 214.488281 280.292969 213.855469 280.867188 213.195312 281.410156 C 212.535156 281.953125 211.847656 282.460938 211.136719 282.933594 C 210.425781 283.410156 209.691406 283.847656 208.9375 284.25 C 208.183594 284.652344 207.410156 285.015625 206.621094 285.34375 C 205.832031 285.671875 205.027344 285.957031 204.207031 286.207031 C 203.390625 286.453125 202.558594 286.660156 201.722656 286.828125 C 200.882812 286.992188 200.039062 287.117188 199.1875 287.203125 C 198.335938 287.285156 197.484375 287.328125 196.628906 287.328125 L 196.039062 287.328125 C 195.183594 287.328125 194.328125 287.285156 193.476562 287.203125 C 192.625 287.117188 191.777344 286.992188 190.9375 286.824219 C 190.097656 286.65625 189.269531 286.449219 188.449219 286.203125 C 187.628906 285.953125 186.824219 285.664062 186.035156 285.335938 C 185.242188 285.007812 184.46875 284.644531 183.714844 284.238281 C 182.960938 283.835938 182.226562 283.398438 181.515625 282.921875 C 180.800781 282.445312 180.113281 281.9375 179.453125 281.394531 C 178.792969 280.847656 178.15625 280.273438 177.550781 279.667969 C 176.945312 279.0625 176.371094 278.429688 175.828125 277.769531 C 175.285156 277.105469 174.777344 276.417969 174.300781 275.707031 C 173.824219 274.996094 173.386719 274.261719 172.980469 273.507812 C 172.578125 272.75 172.210938 271.980469 171.882812 271.1875 C 171.558594 270.394531 171.269531 269.589844 171.019531 268.773438 C 170.769531 267.953125 170.5625 267.121094 170.398438 266.28125 C 170.230469 265.441406 170.105469 264.597656 170.019531 263.746094 C 169.9375 262.894531 169.894531 262.039062 169.894531 261.183594 Z M 169.894531 261.027344 " fill-opacity="1" fill-rule="nonzero"/></svg>